<mxfile host="app.diagrams.net" agent="Mozilla/5.0 (Windows NT 10.0; Win64; x64; rv:131.0) Gecko/20100101 Firefox/131.0" version="24.7.17">
  <diagram name="Page-1" id="-7tjcVAmIYbdqBIuaYrv">
    <mxGraphModel dx="1434" dy="1874" grid="1" gridSize="10" guides="1" tooltips="1" connect="1" arrows="1" fold="1" page="1" pageScale="1" pageWidth="850" pageHeight="1100" math="0" shadow="0">
      <root>
        <mxCell id="0" />
        <mxCell id="1" parent="0" />
        <mxCell id="_rtThs-0a219x_62ZRaR-38" value="&lt;div&gt;Разработчик (студент)&lt;br&gt;&lt;/div&gt;&lt;div&gt;&lt;br&gt;&lt;/div&gt;" style="shape=umlActor;verticalLabelPosition=bottom;verticalAlign=top;html=1;outlineConnect=0;" parent="1" vertex="1">
          <mxGeometry x="80" y="90" width="30" height="60" as="geometry" />
        </mxCell>
        <mxCell id="_rtThs-0a219x_62ZRaR-41" value="&lt;div&gt;Предварительная обработка данных &lt;br&gt;&lt;/div&gt;" style="ellipse;whiteSpace=wrap;html=1;" parent="1" vertex="1">
          <mxGeometry x="365" y="10" width="120" height="80" as="geometry" />
        </mxCell>
        <mxCell id="_rtThs-0a219x_62ZRaR-43" value="&lt;div&gt;Создание и обучение CNN &lt;br&gt;&lt;/div&gt;" style="ellipse;whiteSpace=wrap;html=1;" parent="1" vertex="1">
          <mxGeometry x="225" y="110" width="100" height="60" as="geometry" />
        </mxCell>
        <mxCell id="_rtThs-0a219x_62ZRaR-44" value="Оптимизация нейросети" style="ellipse;whiteSpace=wrap;html=1;" parent="1" vertex="1">
          <mxGeometry x="375" y="160" width="100" height="50" as="geometry" />
        </mxCell>
        <mxCell id="_rtThs-0a219x_62ZRaR-45" value="Тестирование различных подходов обработки данных " style="ellipse;whiteSpace=wrap;html=1;" parent="1" vertex="1">
          <mxGeometry x="475" y="-70" width="130" height="80" as="geometry" />
        </mxCell>
        <mxCell id="_rtThs-0a219x_62ZRaR-46" value="Анализ и документирование (включение)" style="ellipse;whiteSpace=wrap;html=1;" parent="1" vertex="1">
          <mxGeometry x="660" y="-70" width="120" height="80" as="geometry" />
        </mxCell>
        <mxCell id="_rtThs-0a219x_62ZRaR-48" value="&lt;div&gt;Заказчик (пользователь)&lt;/div&gt;" style="shape=umlActor;verticalLabelPosition=bottom;verticalAlign=top;html=1;outlineConnect=0;" parent="1" vertex="1">
          <mxGeometry x="860" y="90" width="30" height="60" as="geometry" />
        </mxCell>
        <mxCell id="_rtThs-0a219x_62ZRaR-49" value="Определение требований" style="ellipse;whiteSpace=wrap;html=1;" parent="1" vertex="1">
          <mxGeometry x="667.5" y="-160" width="105" height="50" as="geometry" />
        </mxCell>
        <mxCell id="_rtThs-0a219x_62ZRaR-50" value="Передача правок " style="ellipse;whiteSpace=wrap;html=1;" parent="1" vertex="1">
          <mxGeometry x="485" y="-155" width="90" height="45" as="geometry" />
        </mxCell>
        <mxCell id="_rtThs-0a219x_62ZRaR-53" value="Использование нейросети" style="ellipse;whiteSpace=wrap;html=1;" parent="1" vertex="1">
          <mxGeometry x="665" y="105" width="110" height="70" as="geometry" />
        </mxCell>
        <mxCell id="_rtThs-0a219x_62ZRaR-68" value="include" style="endArrow=open;endSize=12;dashed=1;html=1;rounded=0;exitX=1;exitY=0.5;exitDx=0;exitDy=0;entryX=0;entryY=0.5;entryDx=0;entryDy=0;" parent="1" source="bBoG62lrZ0tY58F6e8Re-2" target="_rtThs-0a219x_62ZRaR-41" edge="1">
          <mxGeometry width="160" relative="1" as="geometry">
            <mxPoint x="320" y="-40" as="sourcePoint" />
            <mxPoint x="550" y="145" as="targetPoint" />
          </mxGeometry>
        </mxCell>
        <mxCell id="_rtThs-0a219x_62ZRaR-74" value="" style="endArrow=none;html=1;rounded=0;entryX=0;entryY=0.5;entryDx=0;entryDy=0;" parent="1" source="_rtThs-0a219x_62ZRaR-38" target="bBoG62lrZ0tY58F6e8Re-2" edge="1">
          <mxGeometry width="50" height="50" relative="1" as="geometry">
            <mxPoint x="450" y="230" as="sourcePoint" />
            <mxPoint x="230" y="-40" as="targetPoint" />
          </mxGeometry>
        </mxCell>
        <mxCell id="_rtThs-0a219x_62ZRaR-75" value="" style="endArrow=none;html=1;rounded=0;entryX=-0.009;entryY=0.57;entryDx=0;entryDy=0;entryPerimeter=0;" parent="1" source="_rtThs-0a219x_62ZRaR-38" target="_rtThs-0a219x_62ZRaR-45" edge="1">
          <mxGeometry width="50" height="50" relative="1" as="geometry">
            <mxPoint x="120" y="118" as="sourcePoint" />
            <mxPoint x="240" y="25" as="targetPoint" />
          </mxGeometry>
        </mxCell>
        <mxCell id="_rtThs-0a219x_62ZRaR-76" value="" style="endArrow=none;html=1;rounded=0;entryX=0;entryY=0.333;entryDx=0;entryDy=0;entryPerimeter=0;" parent="1" source="_rtThs-0a219x_62ZRaR-38" target="_rtThs-0a219x_62ZRaR-43" edge="1">
          <mxGeometry width="50" height="50" relative="1" as="geometry">
            <mxPoint x="120" y="128" as="sourcePoint" />
            <mxPoint x="218" y="116" as="targetPoint" />
          </mxGeometry>
        </mxCell>
        <mxCell id="_rtThs-0a219x_62ZRaR-77" value="extend" style="html=1;verticalAlign=bottom;endArrow=open;dashed=1;endSize=8;curved=0;rounded=0;exitX=0;exitY=0.5;exitDx=0;exitDy=0;entryX=1;entryY=0.5;entryDx=0;entryDy=0;" parent="1" source="_rtThs-0a219x_62ZRaR-44" target="_rtThs-0a219x_62ZRaR-43" edge="1">
          <mxGeometry relative="1" as="geometry">
            <mxPoint x="405" y="110" as="sourcePoint" />
            <mxPoint x="330" y="150" as="targetPoint" />
            <mxPoint as="offset" />
          </mxGeometry>
        </mxCell>
        <mxCell id="_rtThs-0a219x_62ZRaR-78" value="" style="endArrow=none;html=1;rounded=0;exitX=1;exitY=0.5;exitDx=0;exitDy=0;" parent="1" source="_rtThs-0a219x_62ZRaR-46" target="_rtThs-0a219x_62ZRaR-48" edge="1">
          <mxGeometry width="50" height="50" relative="1" as="geometry">
            <mxPoint x="755" y="213" as="sourcePoint" />
            <mxPoint x="854" y="210" as="targetPoint" />
          </mxGeometry>
        </mxCell>
        <mxCell id="_rtThs-0a219x_62ZRaR-79" value="include" style="endArrow=open;endSize=12;dashed=1;html=1;rounded=0;exitX=1;exitY=0.5;exitDx=0;exitDy=0;entryX=0;entryY=0.5;entryDx=0;entryDy=0;" parent="1" source="_rtThs-0a219x_62ZRaR-45" target="_rtThs-0a219x_62ZRaR-46" edge="1">
          <mxGeometry width="160" relative="1" as="geometry">
            <mxPoint x="390" y="-35" as="sourcePoint" />
            <mxPoint x="465" y="-35" as="targetPoint" />
          </mxGeometry>
        </mxCell>
        <mxCell id="_rtThs-0a219x_62ZRaR-82" value="" style="endArrow=none;html=1;rounded=0;exitX=1;exitY=0.5;exitDx=0;exitDy=0;" parent="1" source="_rtThs-0a219x_62ZRaR-53" target="_rtThs-0a219x_62ZRaR-48" edge="1">
          <mxGeometry width="50" height="50" relative="1" as="geometry">
            <mxPoint x="850" y="270" as="sourcePoint" />
            <mxPoint x="965" y="279" as="targetPoint" />
          </mxGeometry>
        </mxCell>
        <mxCell id="_rtThs-0a219x_62ZRaR-83" value="extend" style="html=1;verticalAlign=bottom;endArrow=open;dashed=1;endSize=8;curved=0;rounded=0;entryX=1;entryY=0.5;entryDx=0;entryDy=0;exitX=0;exitY=0.5;exitDx=0;exitDy=0;" parent="1" source="_rtThs-0a219x_62ZRaR-53" target="_rtThs-0a219x_62ZRaR-43" edge="1">
          <mxGeometry relative="1" as="geometry">
            <mxPoint x="380" y="230" as="sourcePoint" />
            <mxPoint x="380" y="180" as="targetPoint" />
            <mxPoint as="offset" />
          </mxGeometry>
        </mxCell>
        <mxCell id="_rtThs-0a219x_62ZRaR-84" value="" style="endArrow=none;html=1;rounded=0;exitX=1;exitY=0.5;exitDx=0;exitDy=0;" parent="1" source="_rtThs-0a219x_62ZRaR-49" target="_rtThs-0a219x_62ZRaR-48" edge="1">
          <mxGeometry width="50" height="50" relative="1" as="geometry">
            <mxPoint x="810" as="sourcePoint" />
            <mxPoint x="890" y="59" as="targetPoint" />
          </mxGeometry>
        </mxCell>
        <mxCell id="_rtThs-0a219x_62ZRaR-86" value="extend" style="html=1;verticalAlign=bottom;endArrow=open;dashed=1;endSize=8;curved=0;rounded=0;entryX=0;entryY=0.5;entryDx=0;entryDy=0;exitX=1;exitY=0.5;exitDx=0;exitDy=0;" parent="1" source="_rtThs-0a219x_62ZRaR-50" target="_rtThs-0a219x_62ZRaR-49" edge="1">
          <mxGeometry relative="1" as="geometry">
            <mxPoint x="485" y="-90" as="sourcePoint" />
            <mxPoint x="385" y="-90" as="targetPoint" />
            <mxPoint as="offset" />
          </mxGeometry>
        </mxCell>
        <mxCell id="FAR682UhyKgTDgVu_QSN-1" value="Контент менеджер" style="shape=umlActor;verticalLabelPosition=bottom;verticalAlign=top;html=1;outlineConnect=0;" parent="1" vertex="1">
          <mxGeometry x="740" y="775" width="30" height="60" as="geometry" />
        </mxCell>
        <mxCell id="FAR682UhyKgTDgVu_QSN-2" value="Просмотр контента" style="ellipse;whiteSpace=wrap;html=1;" parent="1" vertex="1">
          <mxGeometry x="220" y="880" width="120" height="80" as="geometry" />
        </mxCell>
        <mxCell id="FAR682UhyKgTDgVu_QSN-3" value="Добавление товаров в корзину" style="ellipse;whiteSpace=wrap;html=1;" parent="1" vertex="1">
          <mxGeometry x="222.5" y="600" width="115" height="80" as="geometry" />
        </mxCell>
        <mxCell id="FAR682UhyKgTDgVu_QSN-4" value="оформление заказа" style="ellipse;whiteSpace=wrap;html=1;" parent="1" vertex="1">
          <mxGeometry x="230" y="700" width="97.5" height="70" as="geometry" />
        </mxCell>
        <mxCell id="FAR682UhyKgTDgVu_QSN-5" value="Заказчик (покупатель)" style="shape=umlActor;verticalLabelPosition=bottom;verticalAlign=top;html=1;outlineConnect=0;" parent="1" vertex="1">
          <mxGeometry x="90" y="760" width="30" height="60" as="geometry" />
        </mxCell>
        <mxCell id="FAR682UhyKgTDgVu_QSN-6" value="Добавление товаров" style="ellipse;whiteSpace=wrap;html=1;" parent="1" vertex="1">
          <mxGeometry x="550" y="625" width="100" height="70" as="geometry" />
        </mxCell>
        <mxCell id="FAR682UhyKgTDgVu_QSN-7" value="Редактирование контента" style="ellipse;whiteSpace=wrap;html=1;" parent="1" vertex="1">
          <mxGeometry x="550" y="710" width="100" height="70" as="geometry" />
        </mxCell>
        <mxCell id="FAR682UhyKgTDgVu_QSN-8" value="Просмотр истории заказов" style="ellipse;whiteSpace=wrap;html=1;" parent="1" vertex="1">
          <mxGeometry x="219.37" y="785" width="118.75" height="80" as="geometry" />
        </mxCell>
        <mxCell id="FAR682UhyKgTDgVu_QSN-9" value="Просмотр отзывов на товары" style="ellipse;whiteSpace=wrap;html=1;" parent="1" vertex="1">
          <mxGeometry x="550" y="530" width="100" height="70" as="geometry" />
        </mxCell>
        <mxCell id="FAR682UhyKgTDgVu_QSN-10" value="Изминение видимости товара" style="ellipse;whiteSpace=wrap;html=1;" parent="1" vertex="1">
          <mxGeometry x="395" y="530" width="100" height="70" as="geometry" />
        </mxCell>
        <mxCell id="FAR682UhyKgTDgVu_QSN-11" value="Поиск товаров" style="ellipse;whiteSpace=wrap;html=1;" parent="1" vertex="1">
          <mxGeometry x="219.37" y="980" width="120" height="80" as="geometry" />
        </mxCell>
        <mxCell id="FAR682UhyKgTDgVu_QSN-12" value="Поиск по категорям" style="ellipse;whiteSpace=wrap;html=1;" parent="1" vertex="1">
          <mxGeometry x="430" y="960" width="110" height="80" as="geometry" />
        </mxCell>
        <mxCell id="FAR682UhyKgTDgVu_QSN-13" value="Поиск по дате создания каточки товара" style="ellipse;whiteSpace=wrap;html=1;" parent="1" vertex="1">
          <mxGeometry x="430" y="1050" width="110" height="80" as="geometry" />
        </mxCell>
        <mxCell id="FAR682UhyKgTDgVu_QSN-14" value="" style="endArrow=none;html=1;rounded=0;entryX=0.003;entryY=0.588;entryDx=0;entryDy=0;entryPerimeter=0;" parent="1" source="FAR682UhyKgTDgVu_QSN-5" target="FAR682UhyKgTDgVu_QSN-11" edge="1">
          <mxGeometry width="50" height="50" relative="1" as="geometry">
            <mxPoint x="410" y="900" as="sourcePoint" />
            <mxPoint x="460" y="850" as="targetPoint" />
          </mxGeometry>
        </mxCell>
        <mxCell id="FAR682UhyKgTDgVu_QSN-15" value="" style="endArrow=none;html=1;rounded=0;entryX=0;entryY=0.5;entryDx=0;entryDy=0;" parent="1" source="FAR682UhyKgTDgVu_QSN-5" target="FAR682UhyKgTDgVu_QSN-8" edge="1">
          <mxGeometry width="50" height="50" relative="1" as="geometry">
            <mxPoint x="70" y="860" as="sourcePoint" />
            <mxPoint x="171" y="1049" as="targetPoint" />
          </mxGeometry>
        </mxCell>
        <mxCell id="FAR682UhyKgTDgVu_QSN-16" value="" style="endArrow=none;html=1;rounded=0;entryX=0;entryY=0.5;entryDx=0;entryDy=0;" parent="1" source="FAR682UhyKgTDgVu_QSN-5" target="FAR682UhyKgTDgVu_QSN-3" edge="1">
          <mxGeometry width="50" height="50" relative="1" as="geometry">
            <mxPoint x="130" y="749.1999999999998" as="sourcePoint" />
            <mxPoint x="240" y="780" as="targetPoint" />
          </mxGeometry>
        </mxCell>
        <mxCell id="FAR682UhyKgTDgVu_QSN-17" value="" style="endArrow=none;html=1;rounded=0;entryX=0;entryY=0.5;entryDx=0;entryDy=0;" parent="1" source="FAR682UhyKgTDgVu_QSN-5" target="FAR682UhyKgTDgVu_QSN-4" edge="1">
          <mxGeometry width="50" height="50" relative="1" as="geometry">
            <mxPoint x="190" y="779.9999999999998" as="sourcePoint" />
            <mxPoint x="300" y="810.8" as="targetPoint" />
          </mxGeometry>
        </mxCell>
        <mxCell id="FAR682UhyKgTDgVu_QSN-18" value="" style="endArrow=none;html=1;rounded=0;entryX=0;entryY=0.5;entryDx=0;entryDy=0;" parent="1" source="FAR682UhyKgTDgVu_QSN-5" target="FAR682UhyKgTDgVu_QSN-2" edge="1">
          <mxGeometry width="50" height="50" relative="1" as="geometry">
            <mxPoint x="122" y="702" as="sourcePoint" />
            <mxPoint x="225" y="650" as="targetPoint" />
          </mxGeometry>
        </mxCell>
        <mxCell id="FAR682UhyKgTDgVu_QSN-19" value="&lt;div&gt;include&lt;/div&gt;" style="html=1;verticalAlign=bottom;endArrow=open;dashed=1;endSize=8;curved=0;rounded=0;exitX=0;exitY=0.5;exitDx=0;exitDy=0;entryX=1;entryY=0.5;entryDx=0;entryDy=0;" parent="1" source="FAR682UhyKgTDgVu_QSN-12" target="FAR682UhyKgTDgVu_QSN-11" edge="1">
          <mxGeometry relative="1" as="geometry">
            <mxPoint x="470" y="870" as="sourcePoint" />
            <mxPoint x="390" y="870" as="targetPoint" />
          </mxGeometry>
        </mxCell>
        <mxCell id="FAR682UhyKgTDgVu_QSN-20" value="&lt;div&gt;include&lt;/div&gt;" style="html=1;verticalAlign=bottom;endArrow=open;dashed=1;endSize=8;curved=0;rounded=0;exitX=0;exitY=0.5;exitDx=0;exitDy=0;entryX=1;entryY=0.5;entryDx=0;entryDy=0;" parent="1" source="FAR682UhyKgTDgVu_QSN-13" target="FAR682UhyKgTDgVu_QSN-11" edge="1">
          <mxGeometry relative="1" as="geometry">
            <mxPoint x="440" y="1010" as="sourcePoint" />
            <mxPoint x="351" y="1010" as="targetPoint" />
          </mxGeometry>
        </mxCell>
        <mxCell id="FAR682UhyKgTDgVu_QSN-22" value="" style="endArrow=none;html=1;rounded=0;entryX=1;entryY=0.5;entryDx=0;entryDy=0;" parent="1" source="FAR682UhyKgTDgVu_QSN-1" target="FAR682UhyKgTDgVu_QSN-9" edge="1">
          <mxGeometry width="50" height="50" relative="1" as="geometry">
            <mxPoint x="934" y="935" as="sourcePoint" />
            <mxPoint x="655" y="1134" as="targetPoint" />
          </mxGeometry>
        </mxCell>
        <mxCell id="FAR682UhyKgTDgVu_QSN-23" value="" style="endArrow=none;html=1;rounded=0;entryX=1;entryY=0.5;entryDx=0;entryDy=0;" parent="1" source="FAR682UhyKgTDgVu_QSN-1" target="FAR682UhyKgTDgVu_QSN-7" edge="1">
          <mxGeometry width="50" height="50" relative="1" as="geometry">
            <mxPoint x="840" y="944" as="sourcePoint" />
            <mxPoint x="750" y="965" as="targetPoint" />
          </mxGeometry>
        </mxCell>
        <mxCell id="FAR682UhyKgTDgVu_QSN-24" value="" style="endArrow=none;html=1;rounded=0;entryX=1;entryY=0.5;entryDx=0;entryDy=0;" parent="1" source="FAR682UhyKgTDgVu_QSN-1" target="FAR682UhyKgTDgVu_QSN-6" edge="1">
          <mxGeometry width="50" height="50" relative="1" as="geometry">
            <mxPoint x="880" y="1006" as="sourcePoint" />
            <mxPoint x="790" y="955" as="targetPoint" />
          </mxGeometry>
        </mxCell>
        <mxCell id="FAR682UhyKgTDgVu_QSN-25" value="Создание новой категории товара" style="ellipse;whiteSpace=wrap;html=1;" parent="1" vertex="1">
          <mxGeometry x="390" y="622.5" width="110" height="75" as="geometry" />
        </mxCell>
        <mxCell id="FAR682UhyKgTDgVu_QSN-26" value="extend" style="html=1;verticalAlign=bottom;endArrow=open;dashed=1;endSize=8;curved=0;rounded=0;exitX=1;exitY=0.5;exitDx=0;exitDy=0;entryX=0;entryY=0.5;entryDx=0;entryDy=0;" parent="1" source="FAR682UhyKgTDgVu_QSN-25" target="FAR682UhyKgTDgVu_QSN-6" edge="1">
          <mxGeometry relative="1" as="geometry">
            <mxPoint x="470" y="795" as="sourcePoint" />
            <mxPoint x="390" y="795" as="targetPoint" />
          </mxGeometry>
        </mxCell>
        <mxCell id="FAR682UhyKgTDgVu_QSN-27" value="Добавление изображений товара" style="ellipse;whiteSpace=wrap;html=1;" parent="1" vertex="1">
          <mxGeometry x="390" y="710" width="110" height="75" as="geometry" />
        </mxCell>
        <mxCell id="FAR682UhyKgTDgVu_QSN-28" value="extend" style="html=1;verticalAlign=bottom;endArrow=open;dashed=1;endSize=8;curved=0;rounded=0;exitX=1;exitY=0.5;exitDx=0;exitDy=0;entryX=0;entryY=0.5;entryDx=0;entryDy=0;" parent="1" source="FAR682UhyKgTDgVu_QSN-27" target="FAR682UhyKgTDgVu_QSN-6" edge="1">
          <mxGeometry relative="1" as="geometry">
            <mxPoint x="510" y="670" as="sourcePoint" />
            <mxPoint x="560" y="670" as="targetPoint" />
          </mxGeometry>
        </mxCell>
        <mxCell id="FAR682UhyKgTDgVu_QSN-29" value="Добавление описания товара" style="ellipse;whiteSpace=wrap;html=1;" parent="1" vertex="1">
          <mxGeometry x="390" y="805" width="110" height="75" as="geometry" />
        </mxCell>
        <mxCell id="FAR682UhyKgTDgVu_QSN-30" value="extend" style="html=1;verticalAlign=bottom;endArrow=open;dashed=1;endSize=8;curved=0;rounded=0;exitX=1;exitY=0.5;exitDx=0;exitDy=0;" parent="1" source="FAR682UhyKgTDgVu_QSN-29" edge="1">
          <mxGeometry relative="1" as="geometry">
            <mxPoint x="650" y="1043" as="sourcePoint" />
            <mxPoint x="550" y="665" as="targetPoint" />
          </mxGeometry>
        </mxCell>
        <mxCell id="FAR682UhyKgTDgVu_QSN-31" value="extend" style="html=1;verticalAlign=bottom;endArrow=open;dashed=1;endSize=8;curved=0;rounded=0;exitX=1;exitY=0.5;exitDx=0;exitDy=0;entryX=0;entryY=0.5;entryDx=0;entryDy=0;" parent="1" source="FAR682UhyKgTDgVu_QSN-10" target="FAR682UhyKgTDgVu_QSN-6" edge="1">
          <mxGeometry relative="1" as="geometry">
            <mxPoint x="550" y="555" as="sourcePoint" />
            <mxPoint x="600" y="555" as="targetPoint" />
          </mxGeometry>
        </mxCell>
        <mxCell id="FAR682UhyKgTDgVu_QSN-32" value="" style="html=1;verticalAlign=bottom;endArrow=block;curved=0;rounded=0;entryX=1;entryY=0.5;entryDx=0;entryDy=0;" parent="1" source="FAR682UhyKgTDgVu_QSN-1" target="FAR682UhyKgTDgVu_QSN-11" edge="1">
          <mxGeometry width="80" relative="1" as="geometry">
            <mxPoint x="690" y="970" as="sourcePoint" />
            <mxPoint x="770" y="970" as="targetPoint" />
          </mxGeometry>
        </mxCell>
        <mxCell id="FAR682UhyKgTDgVu_QSN-33" value="" style="html=1;verticalAlign=bottom;endArrow=block;curved=0;rounded=0;entryX=1;entryY=0.5;entryDx=0;entryDy=0;" parent="1" source="FAR682UhyKgTDgVu_QSN-1" target="FAR682UhyKgTDgVu_QSN-2" edge="1">
          <mxGeometry width="80" relative="1" as="geometry">
            <mxPoint x="796" y="980" as="sourcePoint" />
            <mxPoint x="395" y="1187" as="targetPoint" />
          </mxGeometry>
        </mxCell>
        <mxCell id="bBoG62lrZ0tY58F6e8Re-1" value="" style="endArrow=none;html=1;rounded=0;entryX=0;entryY=0.5;entryDx=0;entryDy=0;" edge="1" parent="1" source="_rtThs-0a219x_62ZRaR-38" target="_rtThs-0a219x_62ZRaR-49">
          <mxGeometry width="50" height="50" relative="1" as="geometry">
            <mxPoint x="100" y="82" as="sourcePoint" />
            <mxPoint x="220" y="-60" as="targetPoint" />
          </mxGeometry>
        </mxCell>
        <mxCell id="bBoG62lrZ0tY58F6e8Re-2" value="&lt;div&gt;Получение данных &lt;br&gt;&lt;/div&gt;" style="ellipse;whiteSpace=wrap;html=1;" vertex="1" parent="1">
          <mxGeometry x="233.75" y="20" width="90" height="60" as="geometry" />
        </mxCell>
        <mxCell id="bBoG62lrZ0tY58F6e8Re-3" value="&lt;div&gt;Разработчик (студент)&lt;br&gt;&lt;/div&gt;&lt;div&gt;&lt;br&gt;&lt;/div&gt;" style="shape=umlActor;verticalLabelPosition=bottom;verticalAlign=top;html=1;outlineConnect=0;" vertex="1" parent="1">
          <mxGeometry x="80" y="-140" width="30" height="60" as="geometry" />
        </mxCell>
        <mxCell id="bBoG62lrZ0tY58F6e8Re-4" value="Контроль выполнения разработки" style="ellipse;whiteSpace=wrap;html=1;" vertex="1" parent="1">
          <mxGeometry x="180" y="-190" width="110" height="75" as="geometry" />
        </mxCell>
        <mxCell id="bBoG62lrZ0tY58F6e8Re-5" value="&lt;div&gt;Помощь&lt;/div&gt;&lt;div&gt;&amp;nbsp;команде&lt;/div&gt;" style="ellipse;whiteSpace=wrap;html=1;" vertex="1" parent="1">
          <mxGeometry x="190" y="-100" width="90" height="60" as="geometry" />
        </mxCell>
        <mxCell id="bBoG62lrZ0tY58F6e8Re-6" value="" style="endArrow=none;html=1;rounded=0;entryX=0;entryY=0.5;entryDx=0;entryDy=0;" edge="1" parent="1" source="bBoG62lrZ0tY58F6e8Re-3" target="bBoG62lrZ0tY58F6e8Re-4">
          <mxGeometry width="50" height="50" relative="1" as="geometry">
            <mxPoint x="100" y="28" as="sourcePoint" />
            <mxPoint x="489" y="-120" as="targetPoint" />
          </mxGeometry>
        </mxCell>
        <mxCell id="bBoG62lrZ0tY58F6e8Re-7" value="" style="endArrow=none;html=1;rounded=0;entryX=0;entryY=0.5;entryDx=0;entryDy=0;" edge="1" parent="1" source="bBoG62lrZ0tY58F6e8Re-3" target="bBoG62lrZ0tY58F6e8Re-5">
          <mxGeometry width="50" height="50" relative="1" as="geometry">
            <mxPoint x="120" y="-107" as="sourcePoint" />
            <mxPoint x="190" y="-142" as="targetPoint" />
          </mxGeometry>
        </mxCell>
      </root>
    </mxGraphModel>
  </diagram>
</mxfile>
